<svg id="Essentials" xmlns="http://www.w3.org/2000/svg" viewBox="0 0 25.91 24.35"><defs><style>.cls-1{fill:none;stroke:#8f8f8f;stroke-miterlimit:10;stroke-width:2px;}</style></defs><title>like</title><path class="cls-1" d="M750.93,3023.81a6.25,6.25,0,0,1,5.73-3.89c3.45,0,5.94,3,6.26,6.48a6.45,6.45,0,0,1-.2,2.45,10.82,10.82,0,0,1-3.3,5.5l-8.49,7.57-8.35-7.57a10.82,10.82,0,0,1-3.3-5.5,6.45,6.45,0,0,1-.2-2.45c.31-3.52,2.8-6.48,6.26-6.48A6.06,6.06,0,0,1,750.93,3023.81Z" transform="translate(-738.04 -3018.92)"/></svg>