<svg id="Icons" xmlns="http://www.w3.org/2000/svg" viewBox="0 0 31 24"><defs><style>.cls-1{fill:none;stroke:#fff;stroke-miterlimit:10;stroke-width:2px;}</style></defs><title>inbox</title><rect class="cls-1" x="1" y="1" width="29" height="22" rx="4.19" ry="4.19"/><path class="cls-1" d="M871.84,1109l12-11.2a2.09,2.09,0,0,0-1.46-.59H857.6a2.09,2.09,0,0,0-1.46.59l12,11.2A2.69,2.69,0,0,0,871.84,1109Z" transform="translate(-854.5 -1096.22)"/><path class="cls-1" d="M872.23,1108.64l-.4.37a2.69,2.69,0,0,1-3.67,0l-.4-.37h0l-11.6,10a2.08,2.08,0,0,0,1.43.57H882.4a2.08,2.08,0,0,0,1.43-.57l-11.6-10Z" transform="translate(-854.5 -1096.22)"/></svg>