<svg id="Communications" xmlns="http://www.w3.org/2000/svg" viewBox="0 0 27.02 24.41"><defs><style>.cls-1{fill:none;stroke:#fff;stroke-miterlimit:10;stroke-width:2px;}.cls-2{fill:#fff;}</style></defs><title>messaging</title><path class="cls-1" d="M510,560.5c-6.41,0-11.6,4.66-11.6,10.4a9.6,9.6,0,0,0,1.92,5.73c-.16,1.9-.62,4.57-1.92,5.87a20.88,20.88,0,0,0,6.67-2.18,12.68,12.68,0,0,0,4.93,1c6.41,0,11.6-4.66,11.6-10.4S516.41,560.5,510,560.5Z" transform="translate(-495.58 -559.5)"/><circle class="cls-2" cx="11.42" cy="8.5" r="1.5"/><circle class="cls-2" cx="17.42" cy="8.5" r="1.5"/><path class="cls-2" d="M514.9,572a5,5,0,0,1-9.8,0" transform="translate(-495.58 -559.5)"/></svg>