<svg id="Essentials" xmlns="http://www.w3.org/2000/svg" viewBox="0 0 54 54"><defs><style>.cls-1{fill:none;stroke:#000;stroke-linecap:round;stroke-miterlimit:10;stroke-width:2px;}</style></defs><title>settings</title><path class="cls-1" d="M777.22,3863h-5.05a2.94,2.94,0,0,1-2.08-5l3.57-3.57a1.78,1.78,0,0,0,0-2.52l-4.55-4.55a1.78,1.78,0,0,0-2.52,0l-3.57,3.57a2.94,2.94,0,0,1-5-2.08v-5.05a1.78,1.78,0,0,0-1.78-1.78h-6.44a1.78,1.78,0,0,0-1.78,1.78v5.05a2.94,2.94,0,0,1-5,2.08l-3.57-3.57a1.78,1.78,0,0,0-2.52,0l-4.55,4.55a1.78,1.78,0,0,0,0,2.52l3.57,3.57a2.94,2.94,0,0,1-2.08,5h-5.05a1.78,1.78,0,0,0-1.78,1.78v6.44a1.78,1.78,0,0,0,1.78,1.78h5.05a2.94,2.94,0,0,1,2.08,5l-3.57,3.57a1.78,1.78,0,0,0,0,2.52l4.55,4.55a1.78,1.78,0,0,0,2.52,0l3.57-3.57a2.94,2.94,0,0,1,5,2.08v5.05a1.78,1.78,0,0,0,1.78,1.78h6.44a1.78,1.78,0,0,0,1.78-1.78v-5.05a2.94,2.94,0,0,1,5-2.08l3.57,3.57a1.78,1.78,0,0,0,2.52,0l4.55-4.55a1.78,1.78,0,0,0,0-2.52l-3.57-3.57a2.94,2.94,0,0,1,2.08-5h5.05a1.78,1.78,0,0,0,1.78-1.78v-6.44A1.78,1.78,0,0,0,777.22,3863Z" transform="translate(-726 -3841)"/><circle class="cls-1" cx="27" cy="27" r="8"/></svg>