<svg id="Icons" xmlns="http://www.w3.org/2000/svg" viewBox="0 0 58.95 48"><defs><style>.cls-1{fill:none;stroke:#000;stroke-miterlimit:10;stroke-width:2px;}</style></defs><title>twitter</title><path class="cls-1" d="M520.77,609A12.26,12.26,0,0,0,509,621.4V623c-11.75-2.12-17.62-5.31-24-12-3.81,7.38.35,13.63,5,17-3.11,0-5.66-.45-7.66-2.19a.2.2,0,0,0-.33.2c1.74,6.17,7.49,10.65,12,12-4.07,0-6.83.61-9.69-1.23a.21.21,0,0,0-.31.24c2.16,6.06,6.57,8,13,8-3.2,2.35-7.45,4.82-15.59,5a.36.36,0,0,0-.23.63C484.25,653.1,491.62,655,502,655c17.13,0,31-15.21,31-34v-1a8.69,8.69,0,0,0,5-5.78.17.17,0,0,0-.22-.21L532.14,616a.12.12,0,0,1-.11-.2,15.42,15.42,0,0,0,5-6.6.11.11,0,0,0-.15-.13c-2.7,1.13-5.27,2.2-7.31,2.83a1.27,1.27,0,0,1-1-.11C527.19,611,523.33,609,520.77,609Z" transform="translate(-480.05 -608)"/></svg>