<svg id="Essentials" xmlns="http://www.w3.org/2000/svg" viewBox="0 0 58 58"><defs><style>.cls-1{fill:none;stroke:#000;stroke-linecap:round;stroke-miterlimit:10;stroke-width:2px;}</style></defs><title>upload-photos-for-web</title><circle class="cls-1" cx="29" cy="29" r="28"/><line class="cls-1" x1="29" y1="57" x2="29" y2="1"/><path class="cls-1" d="M870,3122l-.64,0a36,36,0,0,0,0,56l.64,0" transform="translate(-841 -3121)"/><path class="cls-1" d="M849.7,3130.73a36,36,0,0,0,40.6,0" transform="translate(-841 -3121)"/><path class="cls-1" d="M890.86,3168.67a36,36,0,0,0-41.72,0" transform="translate(-841 -3121)"/><path class="cls-1" d="M870,3178l.64,0a36,36,0,0,0,0-56l-.64,0" transform="translate(-841 -3121)"/><line class="cls-1" x1="1" y1="29" x2="57" y2="29"/></svg>