<svg id="Tech" xmlns="http://www.w3.org/2000/svg" viewBox="0 0 60 42"><defs><style>.cls-1,.cls-2{fill:none;stroke:#000;stroke-miterlimit:10;stroke-width:2px;}.cls-1{stroke-linecap:round;}</style></defs><title>upload-photo</title><circle class="cls-1" cx="34" cy="17" r="8"/><path class="cls-2" d="M394.11,1655a12,12,0,1,1,12-12A12,12,0,0,1,394.11,1655Z" transform="translate(-360 -1626)"/><path class="cls-1" d="M417.36,1637H410a1.6,1.6,0,0,1-1.45-.89,16,16,0,0,0-28.87,0,1.6,1.6,0,0,1-1.45.89H362.64a1.64,1.64,0,0,0-1.64,1.64v26.73a1.64,1.64,0,0,0,1.64,1.64h54.73a1.64,1.64,0,0,0,1.64-1.64v-26.73A1.64,1.64,0,0,0,417.36,1637Z" transform="translate(-360 -1626)"/><line class="cls-1" x1="1" y1="17" x2="7" y2="17"/><line class="cls-1" x1="1" y1="23" x2="7" y2="23"/><line class="cls-1" x1="1" y1="29" x2="7" y2="29"/><line class="cls-1" x1="1" y1="35" x2="7" y2="35"/><rect class="cls-1" x="12" y="33" width="6" height="4"/><rect class="cls-1" x="22" y="33" width="6" height="4"/></svg>