<svg id="Music" xmlns="http://www.w3.org/2000/svg" viewBox="0 0 31.03 33.93"><defs><style>.cls-1,.cls-2{fill:none;stroke:#a77dc2;stroke-width:2px;}.cls-1{stroke-linecap:round;stroke-linejoin:round;}.cls-2{stroke-miterlimit:10;}</style></defs><title>audio</title><path class="cls-1" d="M161.16,1180.91c1-1.61,2.9-8.63,2.9-10.89a18.56,18.56,0,0,0-1.44-7.88,13.12,13.12,0,0,0-12.35-8.09c-.55,0-1.1,0-1.65,0a13,13,0,0,0-12.17,8.09A18.64,18.64,0,0,0,135,1170c0,2.26,1.18,9.28,2.18,10.89" transform="translate(-134.03 -1153.06)"/><rect class="cls-1" x="139.64" y="1171.58" width="3.63" height="14.51" rx="1.81" ry="1.81" transform="translate(-351.41 -1106) rotate(-10.75)"/><rect class="cls-1" x="155.11" y="1171.58" width="3.63" height="14.51" rx="1.81" ry="1.81" transform="translate(-42.8 1213.19) rotate(-169.25)"/><polygon class="cls-1" points="5.05 23.05 2.65 24.14 3.82 30.56 6.51 30.74 5.05 23.05"/><polygon class="cls-1" points="25.25 23.05 23.79 30.74 26.48 30.56 27.65 24.14 25.25 23.05"/><path class="cls-2" d="M150.28,1154.06h-1.64a12.52,12.52,0,0,0-8.06,2.88,42.28,42.28,0,0,0,9.26,1,42.94,42.94,0,0,0,8.78-.86A12.4,12.4,0,0,0,150.28,1154.06Z" transform="translate(-134.03 -1153.06)"/></svg>