<svg id="Communications" xmlns="http://www.w3.org/2000/svg" viewBox="0 0 33.99 34"><defs><style>.cls-1{fill:none;stroke:#529ecc;stroke-linecap:round;stroke-miterlimit:10;stroke-width:2px;}.cls-2{fill:#529ecc;}</style></defs><title>chat</title><path class="cls-1" d="M1103.38,554h13.24a9.38,9.38,0,0,1,9.38,9.38v7.72a9.38,9.38,0,0,1-9.38,9.38h0v5.14a.38.38,0,0,1-.66.27l-1-1a14.94,14.94,0,0,0-10.56-4.38h-1a9.38,9.38,0,0,1-9.38-9.38v-7.72A9.38,9.38,0,0,1,1103.38,554Z" transform="translate(-1093 -553.01)"/><line class="cls-1" x1="23.61" y1="24.72" x2="23.61" y2="27.48"/><path class="cls-2" d="M1100.84,561.76v3.73h0a2.28,2.28,0,0,1,1-.91,2.58,2.58,0,0,1,1.14-.28,3.35,3.35,0,0,1,1.3.22,1.92,1.92,0,0,1,.8.6,2.32,2.32,0,0,1,.41.93,5.84,5.84,0,0,1,.12,1.21v4.41h-2v-4.05a2.52,2.52,0,0,0-.28-1.33,1.08,1.08,0,0,0-1-.44,1.36,1.36,0,0,0-1.17.48,2.66,2.66,0,0,0-.36,1.58v3.76h-2v-9.91Z" transform="translate(-1093 -553.01)"/><path class="cls-2" d="M1107.15,563.38v-1.62h2v1.62Zm2,1.11v7.18h-2V564.5Z" transform="translate(-1093 -553.01)"/><path class="cls-2" d="M1113,569.53v2.14h-2.18v-2.14Zm-.61-.83h-1l-.53-4.28v-2.66h2.05v2.66Z" transform="translate(-1093 -553.01)"/></svg>