<svg id="Essentials" xmlns="http://www.w3.org/2000/svg" viewBox="0 0 10.5 9.42"><defs><style>.cls-1{fill:none;stroke:#ff8206;stroke-linecap:round;stroke-linejoin:round;stroke-width:0.5px;}</style></defs><title>quote</title><path class="cls-1" d="M150.32,115.78q-2.57,1.64-2.57,4c0,.48.08.72.25.72l.17,0a.94.94,0,0,1,.33-.08,1.6,1.6,0,0,1,1.23.53,1.87,1.87,0,0,1,.49,1.32,1.74,1.74,0,0,1-.53,1.28,1.76,1.76,0,0,1-1.28.53,2.11,2.11,0,0,1-1.73-.86A3.39,3.39,0,0,1,146,121a6.24,6.24,0,0,1,.58-2.7,6.53,6.53,0,0,1,1.77-2.21,4.09,4.09,0,0,1,1.52-1,.42.42,0,0,1,.36.21.7.7,0,0,1,.14.37Zm5.63,0q-2.56,1.64-2.56,4c0,.48.08.72.25.72l.17,0a.94.94,0,0,1,.33-.08,1.61,1.61,0,0,1,1.22.53,1.85,1.85,0,0,1,.5,1.32,1.73,1.73,0,0,1-.53,1.28A1.76,1.76,0,0,1,154,124a2.11,2.11,0,0,1-1.73-.86,3.39,3.39,0,0,1-.68-2.16,6.22,6.22,0,0,1,.59-2.72,6.49,6.49,0,0,1,1.77-2.2,4.06,4.06,0,0,1,1.51-1,.42.42,0,0,1,.36.21.71.71,0,0,1,.14.37Z" transform="translate(-145.75 -114.83)"/></svg>