<svg id="Essentials" xmlns="http://www.w3.org/2000/svg" viewBox="0 0 14.94 8.73"><title>text</title><path d="M114.62,124h-1.89l-.75-2h-3.43l-.71,2H106l3.35-8.59h1.83Zm-3.19-3.4-1.18-3.19-1.16,3.19Z" transform="translate(-106 -115.41)"/><path d="M116.76,119.68l-1.49-.27a2.33,2.33,0,0,1,.87-1.34,3.17,3.17,0,0,1,1.83-.43,3.94,3.94,0,0,1,1.64.26,1.64,1.64,0,0,1,.76.66,3.4,3.4,0,0,1,.22,1.47l0,1.92a6.67,6.67,0,0,0,.08,1.21,3.53,3.53,0,0,0,.3.83h-1.63q-.06-.16-.16-.49l-.06-.19a3,3,0,0,1-.9.62,2.58,2.58,0,0,1-1,.21,2.12,2.12,0,0,1-1.51-.52,1.73,1.73,0,0,1-.55-1.32,1.77,1.77,0,0,1,.25-.94,1.65,1.65,0,0,1,.71-.63,5.52,5.52,0,0,1,1.31-.38,9,9,0,0,0,1.6-.4v-.16a.85.85,0,0,0-.23-.68,1.4,1.4,0,0,0-.88-.2,1.18,1.18,0,0,0-.69.17A1.2,1.2,0,0,0,116.76,119.68ZM119,121a10.29,10.29,0,0,1-1,.25,3,3,0,0,0-.9.29.69.69,0,0,0-.32.58.81.81,0,0,0,.26.6.9.9,0,0,0,.66.25,1.43,1.43,0,0,0,.85-.29,1,1,0,0,0,.39-.54,3.25,3.25,0,0,0,.06-.8Z" transform="translate(-106 -115.41)"/></svg>